<?xml version="1.0" encoding="iso-8859-1"?>
<!-- Generator: Adobe Illustrator 16.0.0, SVG Export Plug-In . SVG Version: 6.00 Build 0)  -->
<!DOCTYPE svg PUBLIC "-//W3C//DTD SVG 1.1//EN" "http://www.w3.org/Graphics/SVG/1.1/DTD/svg11.dtd">
<svg version="1.1" id="Capa_1" xmlns="http://www.w3.org/2000/svg" xmlns:xlink="http://www.w3.org/1999/xlink" x="0px" y="0px"
	 width="441px" height="441px" viewBox="0 0 441 441" style="enable-background:new 0 0 441 441;" xml:space="preserve">
<g>
	<g>
		<path fill="#c13617" d="M440.232,61.226c-0.998-1.986-2.897-3.425-5.081-3.85L267.022,24.765c-0.437-0.085-0.884-0.128-1.332-0.128
			c-2.533,0-4.916,1.325-6.22,3.459l-36.377,59.614l-69.647-61.276c-1.302-1.146-3.012-1.776-4.814-1.776
			c-1.19,0-2.355,0.286-3.368,0.827L3.822,101.009c-2,1.068-3.398,3.044-3.74,5.285c-0.343,2.242,0.4,4.545,1.989,6.163
			l67.597,68.782v190.17c0,3.418,2.433,6.398,5.782,7.086l184.601,37.764c0.371,0.068,0.766,0.104,1.17,0.104
			c1.951,0,3.617-0.805,3.824-0.908l137.894-78.371c2.256-1.281,3.656-3.69,3.656-6.287V137.884l33.699-70.282
			C441.257,65.597,441.233,63.212,440.232,61.226z M19.163,109.213l128.49-68.612l64.54,56.779L78.255,169.343L19.163,109.213z
			 M217.552,110.919v87.677l-119.43-23.509L217.552,110.919z M254.239,400.309L84.129,365.51V187.075l170.11,33.485V400.309z
			 M260.231,207l-28.219-5.556V107.77l147.273,31.564L260.231,207z M392.132,326.588l-123.43,70.154v-177.92l123.43-70.152V326.588z
			 M395.307,127.976L236.265,93.891L269.2,39.917l154.004,29.875L395.307,127.976z"/>
		<path fill="#fff" d="M301.808,307.748c0.954,0,1.9-0.104,2.822-0.311v31.748c0,4.671,2.53,8.995,6.604,11.281
			c1.931,1.086,4.122,1.66,6.337,1.66c2.373,0,4.701-0.653,6.731-1.889l25.691-15.652c3.831-2.33,6.211-6.564,6.211-11.051v-46.711
			l9.559-5.822c3.659-2.229,5.975-6.115,6.19-10.396s-1.695-8.381-5.111-10.967l-28.61-21.674c-2.228-1.687-5.024-2.614-7.878-2.614
			c-0.968,0-1.927,0.108-2.85,0.321c-3.75,0.867-6.896,3.332-8.631,6.766l-28.615,56.529c-2.596,5.132-1.459,11.441,2.766,15.347
			C295.421,306.527,298.54,307.748,301.808,307.748z M330.952,240.594l25.374,19.219l-14.585,8.887v53.979l-22.648,13.797v-53.98
			l-13.516,8.234L330.952,240.594z"/>
	</g>
</g>
<g>
</g>
<g>
</g>
<g>
</g>
<g>
</g>
<g>
</g>
<g>
</g>
<g>
</g>
<g>
</g>
<g>
</g>
<g>
</g>
<g>
</g>
<g>
</g>
<g>
</g>
<g>
</g>
<g>
</g>
</svg>
